G04 #@! TF.GenerationSoftware,KiCad,Pcbnew,(5.1.8)-1*
G04 #@! TF.CreationDate,2023-06-17T02:04:58+09:00*
G04 #@! TF.ProjectId,VGAFRJ45,56474146-524a-4343-952e-6b696361645f,rev?*
G04 #@! TF.SameCoordinates,PX9157080PY791ddc0*
G04 #@! TF.FileFunction,Legend,Top*
G04 #@! TF.FilePolarity,Positive*
%FSLAX46Y46*%
G04 Gerber Fmt 4.6, Leading zero omitted, Abs format (unit mm)*
G04 Created by KiCad (PCBNEW (5.1.8)-1) date 2023-06-17 02:04:58*
%MOMM*%
%LPD*%
G01*
G04 APERTURE LIST*
%ADD10C,0.150000*%
%ADD11C,0.120000*%
G04 APERTURE END LIST*
D10*
X2056309Y1928810D02*
X2008690Y1976429D01*
X1913452Y2024048D01*
X1818214Y2024048D01*
X1722976Y1976429D01*
X1675357Y1928810D01*
X1627738Y1833572D01*
X1627738Y1738334D01*
X1675357Y1643096D01*
X1722976Y1595477D01*
X1818214Y1547858D01*
X1913452Y1547858D01*
X2008690Y1595477D01*
X2056309Y1643096D01*
X2056309Y2024048D02*
X2056309Y1643096D01*
X2103928Y1595477D01*
X2151547Y1595477D01*
X2246786Y1643096D01*
X2294405Y1738334D01*
X2294405Y1976429D01*
X2199167Y2119286D01*
X2056309Y2214524D01*
X1865833Y2262143D01*
X1675357Y2214524D01*
X1532500Y2119286D01*
X1437262Y1976429D01*
X1389643Y1785953D01*
X1437262Y1595477D01*
X1532500Y1452620D01*
X1675357Y1357381D01*
X1865833Y1309762D01*
X2056309Y1357381D01*
X2199167Y1452620D01*
X2722976Y1452620D02*
X2722976Y2452620D01*
X3151547Y1452620D02*
X3151547Y1976429D01*
X3103928Y2071667D01*
X3008690Y2119286D01*
X2865833Y2119286D01*
X2770595Y2071667D01*
X2722976Y2024048D01*
X3770595Y1452620D02*
X3675357Y1500239D01*
X3627738Y1547858D01*
X3580119Y1643096D01*
X3580119Y1928810D01*
X3627738Y2024048D01*
X3675357Y2071667D01*
X3770595Y2119286D01*
X3913452Y2119286D01*
X4008690Y2071667D01*
X4056309Y2024048D01*
X4103928Y1928810D01*
X4103928Y1643096D01*
X4056309Y1547858D01*
X4008690Y1500239D01*
X3913452Y1452620D01*
X3770595Y1452620D01*
X4961071Y2119286D02*
X4961071Y1452620D01*
X4532500Y2119286D02*
X4532500Y1595477D01*
X4580119Y1500239D01*
X4675357Y1452620D01*
X4818214Y1452620D01*
X4913452Y1500239D01*
X4961071Y1547858D01*
X5437262Y1452620D02*
X5437262Y2119286D01*
X5437262Y2024048D02*
X5484881Y2071667D01*
X5580119Y2119286D01*
X5722976Y2119286D01*
X5818214Y2071667D01*
X5865833Y1976429D01*
X5865833Y1452620D01*
X5865833Y1976429D02*
X5913452Y2071667D01*
X6008690Y2119286D01*
X6151547Y2119286D01*
X6246786Y2071667D01*
X6294405Y1976429D01*
X6294405Y1452620D01*
X7151547Y1500239D02*
X7056309Y1452620D01*
X6865833Y1452620D01*
X6770595Y1500239D01*
X6722976Y1595477D01*
X6722976Y1976429D01*
X6770595Y2071667D01*
X6865833Y2119286D01*
X7056309Y2119286D01*
X7151547Y2071667D01*
X7199167Y1976429D01*
X7199167Y1881191D01*
X6722976Y1785953D01*
X7627738Y1452620D02*
X7627738Y2119286D01*
X7627738Y2452620D02*
X7580119Y2405000D01*
X7627738Y2357381D01*
X7675357Y2405000D01*
X7627738Y2452620D01*
X7627738Y2357381D01*
X2008928Y4357620D02*
X2342261Y3357620D01*
X2675594Y4357620D01*
X3199404Y4357620D02*
X3294642Y4357620D01*
X3389880Y4310000D01*
X3437499Y4262381D01*
X3485118Y4167143D01*
X3532737Y3976667D01*
X3532737Y3738572D01*
X3485118Y3548096D01*
X3437499Y3452858D01*
X3389880Y3405239D01*
X3294642Y3357620D01*
X3199404Y3357620D01*
X3104166Y3405239D01*
X3056547Y3452858D01*
X3008928Y3548096D01*
X2961309Y3738572D01*
X2961309Y3976667D01*
X3008928Y4167143D01*
X3056547Y4262381D01*
X3104166Y4310000D01*
X3199404Y4357620D01*
X4485118Y3357620D02*
X3913690Y3357620D01*
X4199404Y3357620D02*
X4199404Y4357620D01*
X4104166Y4214762D01*
X4008928Y4119524D01*
X3913690Y4071905D01*
X5389880Y3357620D02*
X4913690Y3357620D01*
X4913690Y4357620D01*
X5913690Y4357620D02*
X6008928Y4357620D01*
X6104166Y4310000D01*
X6151785Y4262381D01*
X6199404Y4167143D01*
X6247023Y3976667D01*
X6247023Y3738572D01*
X6199404Y3548096D01*
X6151785Y3452858D01*
X6104166Y3405239D01*
X6008928Y3357620D01*
X5913690Y3357620D01*
X5818451Y3405239D01*
X5770832Y3452858D01*
X5723213Y3548096D01*
X5675594Y3738572D01*
X5675594Y3976667D01*
X5723213Y4167143D01*
X5770832Y4262381D01*
X5818451Y4310000D01*
X5913690Y4357620D01*
X6627975Y4262381D02*
X6675594Y4310000D01*
X6770832Y4357620D01*
X7008928Y4357620D01*
X7104166Y4310000D01*
X7151785Y4262381D01*
X7199404Y4167143D01*
X7199404Y4071905D01*
X7151785Y3929048D01*
X6580356Y3357620D01*
X7199404Y3357620D01*
X595833Y6262620D02*
X929166Y5262620D01*
X1262499Y6262620D01*
X2119642Y6215000D02*
X2024404Y6262620D01*
X1881547Y6262620D01*
X1738690Y6215000D01*
X1643452Y6119762D01*
X1595833Y6024524D01*
X1548214Y5834048D01*
X1548214Y5691191D01*
X1595833Y5500715D01*
X1643452Y5405477D01*
X1738690Y5310239D01*
X1881547Y5262620D01*
X1976785Y5262620D01*
X2119642Y5310239D01*
X2167261Y5357858D01*
X2167261Y5691191D01*
X1976785Y5691191D01*
X2548214Y5548334D02*
X3024404Y5548334D01*
X2452975Y5262620D02*
X2786309Y6262620D01*
X3119642Y5262620D01*
X3786309Y5786429D02*
X3452975Y5786429D01*
X3452975Y5262620D02*
X3452975Y6262620D01*
X3929166Y6262620D01*
X4881547Y5262620D02*
X4548214Y5738810D01*
X4310118Y5262620D02*
X4310118Y6262620D01*
X4691071Y6262620D01*
X4786309Y6215000D01*
X4833928Y6167381D01*
X4881547Y6072143D01*
X4881547Y5929286D01*
X4833928Y5834048D01*
X4786309Y5786429D01*
X4691071Y5738810D01*
X4310118Y5738810D01*
X5595833Y6262620D02*
X5595833Y5548334D01*
X5548214Y5405477D01*
X5452975Y5310239D01*
X5310118Y5262620D01*
X5214880Y5262620D01*
X6500595Y5929286D02*
X6500595Y5262620D01*
X6262499Y6310239D02*
X6024404Y5595953D01*
X6643452Y5595953D01*
X7500595Y6262620D02*
X7024404Y6262620D01*
X6976785Y5786429D01*
X7024404Y5834048D01*
X7119642Y5881667D01*
X7357737Y5881667D01*
X7452975Y5834048D01*
X7500595Y5786429D01*
X7548214Y5691191D01*
X7548214Y5453096D01*
X7500595Y5357858D01*
X7452975Y5310239D01*
X7357737Y5262620D01*
X7119642Y5262620D01*
X7024404Y5310239D01*
X6976785Y5357858D01*
X13248928Y15946429D02*
X13391785Y15898810D01*
X13439404Y15851191D01*
X13487023Y15755953D01*
X13487023Y15613096D01*
X13439404Y15517858D01*
X13391785Y15470239D01*
X13296547Y15422620D01*
X12915595Y15422620D01*
X12915595Y16422620D01*
X13248928Y16422620D01*
X13344166Y16375000D01*
X13391785Y16327381D01*
X13439404Y16232143D01*
X13439404Y16136905D01*
X13391785Y16041667D01*
X13344166Y15994048D01*
X13248928Y15946429D01*
X12915595Y15946429D01*
X13439404Y13835000D02*
X13344166Y13882620D01*
X13201309Y13882620D01*
X13058452Y13835000D01*
X12963214Y13739762D01*
X12915595Y13644524D01*
X12867976Y13454048D01*
X12867976Y13311191D01*
X12915595Y13120715D01*
X12963214Y13025477D01*
X13058452Y12930239D01*
X13201309Y12882620D01*
X13296547Y12882620D01*
X13439404Y12930239D01*
X13487023Y12977858D01*
X13487023Y13311191D01*
X13296547Y13311191D01*
X13487023Y10342620D02*
X13153690Y10818810D01*
X12915595Y10342620D02*
X12915595Y11342620D01*
X13296547Y11342620D01*
X13391785Y11295000D01*
X13439404Y11247381D01*
X13487023Y11152143D01*
X13487023Y11009286D01*
X13439404Y10914048D01*
X13391785Y10866429D01*
X13296547Y10818810D01*
X12915595Y10818810D01*
X20587642Y17216381D02*
X20063833Y16549715D01*
X20587642Y16549715D02*
X20063833Y17216381D01*
X20544500Y18822000D02*
X21401642Y18822000D01*
X20639738Y18454620D02*
X20973071Y17454620D01*
X21306404Y18454620D01*
X20544500Y16155000D02*
X21592119Y16155000D01*
X20782595Y14787620D02*
X20782595Y15787620D01*
X20782595Y15311429D02*
X21354023Y15311429D01*
X21354023Y14787620D02*
X21354023Y15787620D01*
X13104761Y2827977D02*
X13152380Y2970834D01*
X13152380Y3208929D01*
X13104761Y3304167D01*
X13057142Y3351786D01*
X12961904Y3399405D01*
X12866666Y3399405D01*
X12771428Y3351786D01*
X12723809Y3304167D01*
X12676190Y3208929D01*
X12628571Y3018453D01*
X12580952Y2923215D01*
X12533333Y2875596D01*
X12438095Y2827977D01*
X12342857Y2827977D01*
X12247619Y2875596D01*
X12200000Y2923215D01*
X12152380Y3018453D01*
X12152380Y3256548D01*
X12200000Y3399405D01*
X13152380Y3827977D02*
X12485714Y3827977D01*
X12152380Y3827977D02*
X12200000Y3780358D01*
X12247619Y3827977D01*
X12200000Y3875596D01*
X12152380Y3827977D01*
X12247619Y3827977D01*
X13152380Y4732739D02*
X12152380Y4732739D01*
X13104761Y4732739D02*
X13152380Y4637500D01*
X13152380Y4447024D01*
X13104761Y4351786D01*
X13057142Y4304167D01*
X12961904Y4256548D01*
X12676190Y4256548D01*
X12580952Y4304167D01*
X12533333Y4351786D01*
X12485714Y4447024D01*
X12485714Y4637500D01*
X12533333Y4732739D01*
X13104761Y5589881D02*
X13152380Y5494643D01*
X13152380Y5304167D01*
X13104761Y5208929D01*
X13009523Y5161310D01*
X12628571Y5161310D01*
X12533333Y5208929D01*
X12485714Y5304167D01*
X12485714Y5494643D01*
X12533333Y5589881D01*
X12628571Y5637500D01*
X12723809Y5637500D01*
X12819047Y5161310D01*
X11358571Y1303929D02*
X11358571Y970596D01*
X11882380Y970596D02*
X10882380Y970596D01*
X10882380Y1446786D01*
X11834761Y2208691D02*
X11882380Y2113453D01*
X11882380Y1922977D01*
X11834761Y1827739D01*
X11739523Y1780120D01*
X11358571Y1780120D01*
X11263333Y1827739D01*
X11215714Y1922977D01*
X11215714Y2113453D01*
X11263333Y2208691D01*
X11358571Y2256310D01*
X11453809Y2256310D01*
X11549047Y1780120D01*
X11882380Y2684881D02*
X11215714Y2684881D01*
X11310952Y2684881D02*
X11263333Y2732500D01*
X11215714Y2827739D01*
X11215714Y2970596D01*
X11263333Y3065834D01*
X11358571Y3113453D01*
X11882380Y3113453D01*
X11358571Y3113453D02*
X11263333Y3161072D01*
X11215714Y3256310D01*
X11215714Y3399167D01*
X11263333Y3494405D01*
X11358571Y3542024D01*
X11882380Y3542024D01*
X11882380Y4446786D02*
X11358571Y4446786D01*
X11263333Y4399167D01*
X11215714Y4303929D01*
X11215714Y4113453D01*
X11263333Y4018215D01*
X11834761Y4446786D02*
X11882380Y4351548D01*
X11882380Y4113453D01*
X11834761Y4018215D01*
X11739523Y3970596D01*
X11644285Y3970596D01*
X11549047Y4018215D01*
X11501428Y4113453D01*
X11501428Y4351548D01*
X11453809Y4446786D01*
X11882380Y5065834D02*
X11834761Y4970596D01*
X11739523Y4922977D01*
X10882380Y4922977D01*
X11834761Y5827739D02*
X11882380Y5732500D01*
X11882380Y5542024D01*
X11834761Y5446786D01*
X11739523Y5399167D01*
X11358571Y5399167D01*
X11263333Y5446786D01*
X11215714Y5542024D01*
X11215714Y5732500D01*
X11263333Y5827739D01*
X11358571Y5875358D01*
X11453809Y5875358D01*
X11549047Y5399167D01*
D11*
X8390000Y11113000D02*
X8890000Y11613000D01*
X9390000Y11113000D02*
X8390000Y11113000D01*
X8890000Y11613000D02*
X9390000Y11113000D01*
X12446000Y24638000D02*
X12446000Y7874000D01*
X4064000Y8890000D02*
X12446000Y8890000D01*
X4064000Y23622000D02*
X12446000Y23622000D01*
X0Y7874000D02*
X0Y24638000D01*
X12446000Y7874000D02*
X0Y7874000D01*
X12446000Y24638000D02*
X0Y24638000D01*
X4064000Y23622000D02*
X0Y23622000D01*
X4064000Y8890000D02*
X0Y8890000D01*
X22170000Y520000D02*
X13570000Y520000D01*
X13570000Y520000D02*
X13570000Y31490000D01*
X13570000Y31490000D02*
X22170000Y31490000D01*
X12675662Y20070000D02*
X12675662Y20570000D01*
X12675662Y20570000D02*
X13108675Y20320000D01*
X13108675Y20320000D02*
X12675662Y20070000D01*
X18133325Y16891000D02*
X18566338Y17141000D01*
X18566338Y16641000D02*
X18133325Y16891000D01*
X18566338Y17141000D02*
X18566338Y16641000D01*
X18542000Y16891000D02*
X19939000Y16891000D01*
D10*
X14692380Y8556667D02*
X15406666Y8556667D01*
X15549523Y8509048D01*
X15644761Y8413810D01*
X15692380Y8270953D01*
X15692380Y8175715D01*
X15692380Y9556667D02*
X15692380Y8985239D01*
X15692380Y9270953D02*
X14692380Y9270953D01*
X14835238Y9175715D01*
X14930476Y9080477D01*
X14978095Y8985239D01*
X722380Y9826667D02*
X1436666Y9826667D01*
X1579523Y9779048D01*
X1674761Y9683810D01*
X1722380Y9540953D01*
X1722380Y9445715D01*
X817619Y10255239D02*
X770000Y10302858D01*
X722380Y10398096D01*
X722380Y10636191D01*
X770000Y10731429D01*
X817619Y10779048D01*
X912857Y10826667D01*
X1008095Y10826667D01*
X1150952Y10779048D01*
X1722380Y10207620D01*
X1722380Y10826667D01*
M02*
