M48
; DRILL file {KiCad (5.1.8)-1} date 06/17/23 02:05:02
; FORMAT={3:3/ absolute / metric / suppress leading zeros}
; #@! TF.CreationDate,2023-06-17T02:05:02+09:00
; #@! TF.GenerationSoftware,Kicad,Pcbnew,(5.1.8)-1
FMAT,2
METRIC,TZ
T1C0.400
T2C0.760
T3C1.000
T4C1.500
T5C3.200
T6C2.600
%
G90
G05
T1
X7620Y22479
T2
X6350Y19812
X6350Y17780
X6350Y15748
X6350Y13716
X8890Y18796
X8890Y16764
X8890Y14732
X8890Y12700
T3
X15240Y20320
X15240Y18030
X15240Y15740
X15240Y13450
X15240Y11160
X17220Y21465
X17220Y19175
X17220Y16885
X17220Y14595
X17220Y12305
X17240Y10033
X19200Y20320
X19200Y18030
X19200Y15740
X19200Y13450
X19200Y11160
T4
X8890Y24384
X8890Y8255
T5
X17290Y28505
X17290Y3505
T6
X4064Y23622
X4064Y8890
T0
M30
