G04 #@! TF.GenerationSoftware,KiCad,Pcbnew,(5.1.8)-1*
G04 #@! TF.CreationDate,2023-06-17T02:04:58+09:00*
G04 #@! TF.ProjectId,VGAFRJ45,56474146-524a-4343-952e-6b696361645f,rev?*
G04 #@! TF.SameCoordinates,PX9157080PY791ddc0*
G04 #@! TF.FileFunction,Copper,L1,Top*
G04 #@! TF.FilePolarity,Positive*
%FSLAX46Y46*%
G04 Gerber Fmt 4.6, Leading zero omitted, Abs format (unit mm)*
G04 Created by KiCad (PCBNEW (5.1.8)-1) date 2023-06-17 02:04:58*
%MOMM*%
%LPD*%
G01*
G04 APERTURE LIST*
G04 #@! TA.AperFunction,ComponentPad*
%ADD10C,2.000000*%
G04 #@! TD*
G04 #@! TA.AperFunction,ComponentPad*
%ADD11C,1.500000*%
G04 #@! TD*
G04 #@! TA.AperFunction,ComponentPad*
%ADD12R,1.500000X1.500000*%
G04 #@! TD*
G04 #@! TA.AperFunction,ComponentPad*
%ADD13C,1.600000*%
G04 #@! TD*
G04 #@! TA.AperFunction,ComponentPad*
%ADD14C,4.000000*%
G04 #@! TD*
G04 #@! TA.AperFunction,ComponentPad*
%ADD15R,1.600000X1.600000*%
G04 #@! TD*
G04 #@! TA.AperFunction,ViaPad*
%ADD16C,0.800000*%
G04 #@! TD*
G04 #@! TA.AperFunction,Conductor*
%ADD17C,0.250000*%
G04 #@! TD*
G04 #@! TA.AperFunction,Conductor*
%ADD18C,0.254000*%
G04 #@! TD*
G04 #@! TA.AperFunction,Conductor*
%ADD19C,0.100000*%
G04 #@! TD*
G04 APERTURE END LIST*
D10*
X8890000Y24384000D03*
X8890000Y8255000D03*
D11*
X6350000Y19812000D03*
X6350000Y13716000D03*
X8890000Y14732000D03*
X6350000Y15748000D03*
X8890000Y16764000D03*
X6350000Y17780000D03*
X8890000Y18796000D03*
D12*
X8890000Y12700000D03*
D13*
X17240000Y10033000D03*
D14*
X17290000Y28505000D03*
X17290000Y3505000D03*
D13*
X19200000Y11160000D03*
X19200000Y13450000D03*
X19200000Y15740000D03*
X19200000Y18030000D03*
X19200000Y20320000D03*
X17220000Y12305000D03*
X17220000Y14595000D03*
X17220000Y16885000D03*
X17220000Y19175000D03*
X17220000Y21465000D03*
X15240000Y11160000D03*
X15240000Y13450000D03*
X15240000Y15740000D03*
X15240000Y18030000D03*
D15*
X15240000Y20320000D03*
D16*
X7620000Y22479000D03*
D17*
X8763000Y12827000D02*
X8890000Y12700000D01*
X7620000Y12827000D02*
X8763000Y12827000D01*
X7620000Y22479000D02*
X7620000Y12827000D01*
D18*
X16255474Y30942279D02*
X15838228Y30719258D01*
X15622106Y30352499D01*
X17290000Y28684605D01*
X18957894Y30352499D01*
X18741772Y30719258D01*
X18281895Y30959938D01*
X17839287Y31090000D01*
X21565001Y31090000D01*
X21565000Y660000D01*
X660000Y660000D01*
X660000Y1657501D01*
X15622106Y1657501D01*
X15838228Y1290742D01*
X16298105Y1050062D01*
X16796098Y903725D01*
X17313071Y857352D01*
X17829159Y912727D01*
X18324526Y1067721D01*
X18741772Y1290742D01*
X18957894Y1657501D01*
X17290000Y3325395D01*
X15622106Y1657501D01*
X660000Y1657501D01*
X660000Y3481929D01*
X14642352Y3481929D01*
X14697727Y2965841D01*
X14852721Y2470474D01*
X15075742Y2053228D01*
X15442501Y1837106D01*
X17110395Y3505000D01*
X17469605Y3505000D01*
X19137499Y1837106D01*
X19504258Y2053228D01*
X19744938Y2513105D01*
X19891275Y3011098D01*
X19937648Y3528071D01*
X19882273Y4044159D01*
X19727279Y4539526D01*
X19504258Y4956772D01*
X19137499Y5172894D01*
X17469605Y3505000D01*
X17110395Y3505000D01*
X15442501Y5172894D01*
X15075742Y4956772D01*
X14835062Y4496895D01*
X14688725Y3998902D01*
X14642352Y3481929D01*
X660000Y3481929D01*
X660000Y5352499D01*
X15622106Y5352499D01*
X17290000Y3684605D01*
X18957894Y5352499D01*
X18741772Y5719258D01*
X18281895Y5959938D01*
X17783902Y6106275D01*
X17266929Y6152648D01*
X16750841Y6097273D01*
X16255474Y5942279D01*
X15838228Y5719258D01*
X15622106Y5352499D01*
X660000Y5352499D01*
X660000Y9080581D01*
X2129000Y9080581D01*
X2129000Y8699419D01*
X2203361Y8325581D01*
X2349225Y7973434D01*
X2560987Y7656509D01*
X2830509Y7386987D01*
X3147434Y7175225D01*
X3499581Y7029361D01*
X3873419Y6955000D01*
X4254581Y6955000D01*
X4628419Y7029361D01*
X4846243Y7119587D01*
X7934192Y7119587D01*
X8029956Y6855186D01*
X8319571Y6714296D01*
X8631108Y6632616D01*
X8952595Y6613282D01*
X9271675Y6657039D01*
X9576088Y6762205D01*
X9750044Y6855186D01*
X9845808Y7119587D01*
X8890000Y8075395D01*
X7934192Y7119587D01*
X4846243Y7119587D01*
X4980566Y7175225D01*
X5297491Y7386987D01*
X5567013Y7656509D01*
X5778775Y7973434D01*
X5869475Y8192405D01*
X7248282Y8192405D01*
X7292039Y7873325D01*
X7397205Y7568912D01*
X7490186Y7394956D01*
X7754587Y7299192D01*
X8710395Y8255000D01*
X9069605Y8255000D01*
X10025413Y7299192D01*
X10289814Y7394956D01*
X10430704Y7684571D01*
X10512384Y7996108D01*
X10531718Y8317595D01*
X10487961Y8636675D01*
X10382795Y8941088D01*
X10329767Y9040298D01*
X16426903Y9040298D01*
X16498486Y8796329D01*
X16753996Y8675429D01*
X17028184Y8606700D01*
X17310512Y8592783D01*
X17590130Y8634213D01*
X17856292Y8729397D01*
X17981514Y8796329D01*
X18053097Y9040298D01*
X17240000Y9853395D01*
X16426903Y9040298D01*
X10329767Y9040298D01*
X10289814Y9115044D01*
X10025413Y9210808D01*
X9069605Y8255000D01*
X8710395Y8255000D01*
X7754587Y9210808D01*
X7490186Y9115044D01*
X7349296Y8825429D01*
X7267616Y8513892D01*
X7248282Y8192405D01*
X5869475Y8192405D01*
X5924639Y8325581D01*
X5999000Y8699419D01*
X5999000Y9080581D01*
X5937371Y9390413D01*
X7934192Y9390413D01*
X8890000Y8434605D01*
X9845808Y9390413D01*
X9750044Y9654814D01*
X9460429Y9795704D01*
X9148892Y9877384D01*
X8827405Y9896718D01*
X8508325Y9852961D01*
X8203912Y9747795D01*
X8029956Y9654814D01*
X7934192Y9390413D01*
X5937371Y9390413D01*
X5924639Y9454419D01*
X5778775Y9806566D01*
X5567013Y10123491D01*
X5297491Y10393013D01*
X4980566Y10604775D01*
X4628419Y10750639D01*
X4254581Y10825000D01*
X3873419Y10825000D01*
X3499581Y10750639D01*
X3147434Y10604775D01*
X2830509Y10393013D01*
X2560987Y10123491D01*
X2349225Y9806566D01*
X2203361Y9454419D01*
X2129000Y9080581D01*
X660000Y9080581D01*
X660000Y11089488D01*
X13799783Y11089488D01*
X13841213Y10809870D01*
X13936397Y10543708D01*
X14003329Y10418486D01*
X14247298Y10346903D01*
X15060395Y11160000D01*
X14247298Y11973097D01*
X14003329Y11901514D01*
X13882429Y11646004D01*
X13813700Y11371816D01*
X13799783Y11089488D01*
X660000Y11089488D01*
X660000Y11950000D01*
X7501928Y11950000D01*
X7514188Y11825518D01*
X7550498Y11705820D01*
X7609463Y11595506D01*
X7688815Y11498815D01*
X7785506Y11419463D01*
X7895820Y11360498D01*
X8015518Y11324188D01*
X8140000Y11311928D01*
X8604250Y11315000D01*
X8763000Y11473750D01*
X8763000Y12573000D01*
X9017000Y12573000D01*
X9017000Y11473750D01*
X9175750Y11315000D01*
X9640000Y11311928D01*
X9764482Y11324188D01*
X9884180Y11360498D01*
X9994494Y11419463D01*
X10091185Y11498815D01*
X10170537Y11595506D01*
X10229502Y11705820D01*
X10265812Y11825518D01*
X10278072Y11950000D01*
X10275000Y12414250D01*
X10116250Y12573000D01*
X9017000Y12573000D01*
X8763000Y12573000D01*
X7663750Y12573000D01*
X7505000Y12414250D01*
X7501928Y11950000D01*
X660000Y11950000D01*
X660000Y19948411D01*
X4965000Y19948411D01*
X4965000Y19675589D01*
X5018225Y19408011D01*
X5122629Y19155957D01*
X5274201Y18929114D01*
X5407315Y18796000D01*
X5274201Y18662886D01*
X5122629Y18436043D01*
X5018225Y18183989D01*
X4965000Y17916411D01*
X4965000Y17643589D01*
X5018225Y17376011D01*
X5122629Y17123957D01*
X5274201Y16897114D01*
X5407315Y16764000D01*
X5274201Y16630886D01*
X5122629Y16404043D01*
X5018225Y16151989D01*
X4965000Y15884411D01*
X4965000Y15611589D01*
X5018225Y15344011D01*
X5122629Y15091957D01*
X5274201Y14865114D01*
X5407315Y14732000D01*
X5274201Y14598886D01*
X5122629Y14372043D01*
X5018225Y14119989D01*
X4965000Y13852411D01*
X4965000Y13579589D01*
X5018225Y13312011D01*
X5122629Y13059957D01*
X5274201Y12833114D01*
X5467114Y12640201D01*
X5693957Y12488629D01*
X5946011Y12384225D01*
X6213589Y12331000D01*
X6486411Y12331000D01*
X6753989Y12384225D01*
X7006043Y12488629D01*
X7232886Y12640201D01*
X7425799Y12833114D01*
X7518660Y12972090D01*
X7663750Y12827000D01*
X8763000Y12827000D01*
X8763000Y12847000D01*
X9017000Y12847000D01*
X9017000Y12827000D01*
X10116250Y12827000D01*
X10275000Y12985750D01*
X10277605Y13379488D01*
X13799783Y13379488D01*
X13841213Y13099870D01*
X13936397Y12833708D01*
X14003329Y12708486D01*
X14247298Y12636903D01*
X15060395Y13450000D01*
X14247298Y14263097D01*
X14003329Y14191514D01*
X13882429Y13936004D01*
X13813700Y13661816D01*
X13799783Y13379488D01*
X10277605Y13379488D01*
X10278072Y13450000D01*
X10265812Y13574482D01*
X10229502Y13694180D01*
X10170537Y13804494D01*
X10091185Y13901185D01*
X9994494Y13980537D01*
X9976521Y13990144D01*
X10085860Y14020137D01*
X10201760Y14267116D01*
X10267250Y14531960D01*
X10279812Y14804492D01*
X10238965Y15074238D01*
X10146277Y15330832D01*
X10085860Y15443863D01*
X9846993Y15509388D01*
X9069605Y14732000D01*
X9083748Y14717857D01*
X8904143Y14538252D01*
X8890000Y14552395D01*
X8875858Y14538252D01*
X8696253Y14717857D01*
X8710395Y14732000D01*
X7933007Y15509388D01*
X7702070Y15446038D01*
X7735000Y15611589D01*
X7735000Y15807007D01*
X8112612Y15807007D01*
X8128799Y15748000D01*
X8112612Y15688993D01*
X8157222Y15644383D01*
X8178137Y15568140D01*
X8282386Y15519219D01*
X8890000Y14911605D01*
X9484583Y15506188D01*
X9488832Y15507723D01*
X9601863Y15568140D01*
X9622778Y15644383D01*
X9667388Y15688993D01*
X9651201Y15748000D01*
X9667388Y15807007D01*
X9622778Y15851617D01*
X9601863Y15927860D01*
X9497614Y15976781D01*
X8890000Y16584395D01*
X8295417Y15989812D01*
X8291168Y15988277D01*
X8178137Y15927860D01*
X8157222Y15851617D01*
X8112612Y15807007D01*
X7735000Y15807007D01*
X7735000Y15884411D01*
X7702070Y16049962D01*
X7933007Y15986612D01*
X8710395Y16764000D01*
X9069605Y16764000D01*
X9846993Y15986612D01*
X10085860Y16052137D01*
X10201760Y16299116D01*
X10267250Y16563960D01*
X10279812Y16836492D01*
X10238965Y17106238D01*
X10146277Y17362832D01*
X10085860Y17475863D01*
X9846993Y17541388D01*
X9069605Y16764000D01*
X8710395Y16764000D01*
X7933007Y17541388D01*
X7702070Y17478038D01*
X7735000Y17643589D01*
X7735000Y17916411D01*
X7702362Y18080493D01*
X7814201Y17913114D01*
X8007114Y17720201D01*
X8233957Y17568629D01*
X8286910Y17546695D01*
X8890000Y16943605D01*
X9493090Y17546695D01*
X9546043Y17568629D01*
X9772886Y17720201D01*
X9965799Y17913114D01*
X10117371Y18139957D01*
X10221775Y18392011D01*
X10275000Y18659589D01*
X10275000Y18932411D01*
X10221775Y19199989D01*
X10117371Y19452043D01*
X9965799Y19678886D01*
X9772886Y19871799D01*
X9546043Y20023371D01*
X9293989Y20127775D01*
X9026411Y20181000D01*
X8753589Y20181000D01*
X8486011Y20127775D01*
X8233957Y20023371D01*
X8007114Y19871799D01*
X7814201Y19678886D01*
X7702362Y19511507D01*
X7735000Y19675589D01*
X7735000Y19948411D01*
X7681775Y20215989D01*
X7577371Y20468043D01*
X7425799Y20694886D01*
X7232886Y20887799D01*
X7006043Y21039371D01*
X6811388Y21120000D01*
X13801928Y21120000D01*
X13801928Y19520000D01*
X13814188Y19395518D01*
X13850498Y19275820D01*
X13909463Y19165506D01*
X13988815Y19068815D01*
X14085506Y18989463D01*
X14140612Y18960008D01*
X14125363Y18944759D01*
X13968320Y18709727D01*
X13860147Y18448574D01*
X13805000Y18171335D01*
X13805000Y17888665D01*
X13860147Y17611426D01*
X13968320Y17350273D01*
X14125363Y17115241D01*
X14325241Y16915363D01*
X14370683Y16885000D01*
X14325241Y16854637D01*
X14125363Y16654759D01*
X13968320Y16419727D01*
X13860147Y16158574D01*
X13805000Y15881335D01*
X13805000Y15598665D01*
X13860147Y15321426D01*
X13968320Y15060273D01*
X14125363Y14825241D01*
X14325241Y14625363D01*
X14455049Y14538628D01*
X14426903Y14442702D01*
X15240000Y13629605D01*
X15254143Y13643747D01*
X15433748Y13464142D01*
X15419605Y13450000D01*
X15433748Y13435857D01*
X15254143Y13256252D01*
X15240000Y13270395D01*
X14426903Y12457298D01*
X14471589Y12305000D01*
X14426903Y12152702D01*
X15240000Y11339605D01*
X15254143Y11353747D01*
X15433748Y11174142D01*
X15419605Y11160000D01*
X15433748Y11145857D01*
X15254143Y10966252D01*
X15240000Y10980395D01*
X14426903Y10167298D01*
X14498486Y9923329D01*
X14753996Y9802429D01*
X15028184Y9733700D01*
X15310512Y9719783D01*
X15590130Y9761213D01*
X15817555Y9842544D01*
X15841213Y9682870D01*
X15936397Y9416708D01*
X16003329Y9291486D01*
X16247298Y9219903D01*
X17060395Y10033000D01*
X17046253Y10047142D01*
X17225858Y10226747D01*
X17240000Y10212605D01*
X17254143Y10226747D01*
X17433748Y10047142D01*
X17419605Y10033000D01*
X18232702Y9219903D01*
X18476671Y9291486D01*
X18597571Y9546996D01*
X18666300Y9821184D01*
X18666621Y9827701D01*
X18781426Y9780147D01*
X19058665Y9725000D01*
X19341335Y9725000D01*
X19618574Y9780147D01*
X19879727Y9888320D01*
X20114759Y10045363D01*
X20314637Y10245241D01*
X20471680Y10480273D01*
X20579853Y10741426D01*
X20635000Y11018665D01*
X20635000Y11301335D01*
X20579853Y11578574D01*
X20471680Y11839727D01*
X20314637Y12074759D01*
X20114759Y12274637D01*
X20069317Y12305000D01*
X20114759Y12335363D01*
X20314637Y12535241D01*
X20471680Y12770273D01*
X20579853Y13031426D01*
X20635000Y13308665D01*
X20635000Y13591335D01*
X20579853Y13868574D01*
X20471680Y14129727D01*
X20314637Y14364759D01*
X20114759Y14564637D01*
X20069317Y14595000D01*
X20114759Y14625363D01*
X20314637Y14825241D01*
X20471680Y15060273D01*
X20579853Y15321426D01*
X20635000Y15598665D01*
X20635000Y15881335D01*
X20579853Y16158574D01*
X20471680Y16419727D01*
X20314637Y16654759D01*
X20114759Y16854637D01*
X20069317Y16885000D01*
X20114759Y16915363D01*
X20314637Y17115241D01*
X20471680Y17350273D01*
X20579853Y17611426D01*
X20635000Y17888665D01*
X20635000Y18171335D01*
X20579853Y18448574D01*
X20471680Y18709727D01*
X20314637Y18944759D01*
X20114759Y19144637D01*
X19984951Y19231372D01*
X20013097Y19327298D01*
X19200000Y20140395D01*
X19185858Y20126252D01*
X19006253Y20305857D01*
X19020395Y20320000D01*
X19379605Y20320000D01*
X20192702Y19506903D01*
X20436671Y19578486D01*
X20557571Y19833996D01*
X20626300Y20108184D01*
X20640217Y20390512D01*
X20598787Y20670130D01*
X20503603Y20936292D01*
X20436671Y21061514D01*
X20192702Y21133097D01*
X19379605Y20320000D01*
X19020395Y20320000D01*
X19006253Y20334142D01*
X19185858Y20513747D01*
X19200000Y20499605D01*
X20013097Y21312702D01*
X19941514Y21556671D01*
X19686004Y21677571D01*
X19411816Y21746300D01*
X19129488Y21760217D01*
X18849870Y21718787D01*
X18643972Y21645154D01*
X18618787Y21815130D01*
X18523603Y22081292D01*
X18456671Y22206514D01*
X18212702Y22278097D01*
X17399605Y21465000D01*
X17413748Y21450857D01*
X17234143Y21271252D01*
X17220000Y21285395D01*
X17205858Y21271252D01*
X17026253Y21450857D01*
X17040395Y21465000D01*
X16227298Y22278097D01*
X15983329Y22206514D01*
X15862429Y21951004D01*
X15814068Y21758072D01*
X14440000Y21758072D01*
X14315518Y21745812D01*
X14195820Y21709502D01*
X14085506Y21650537D01*
X13988815Y21571185D01*
X13909463Y21474494D01*
X13850498Y21364180D01*
X13814188Y21244482D01*
X13801928Y21120000D01*
X6811388Y21120000D01*
X6753989Y21143775D01*
X6486411Y21197000D01*
X6213589Y21197000D01*
X5946011Y21143775D01*
X5693957Y21039371D01*
X5467114Y20887799D01*
X5274201Y20694886D01*
X5122629Y20468043D01*
X5018225Y20215989D01*
X4965000Y19948411D01*
X660000Y19948411D01*
X660000Y23812581D01*
X2129000Y23812581D01*
X2129000Y23431419D01*
X2203361Y23057581D01*
X2349225Y22705434D01*
X2560987Y22388509D01*
X2830509Y22118987D01*
X3147434Y21907225D01*
X3499581Y21761361D01*
X3873419Y21687000D01*
X4254581Y21687000D01*
X4628419Y21761361D01*
X4980566Y21907225D01*
X5297491Y22118987D01*
X5567013Y22388509D01*
X5613246Y22457702D01*
X16406903Y22457702D01*
X17220000Y21644605D01*
X18033097Y22457702D01*
X17961514Y22701671D01*
X17706004Y22822571D01*
X17431816Y22891300D01*
X17149488Y22905217D01*
X16869870Y22863787D01*
X16603708Y22768603D01*
X16478486Y22701671D01*
X16406903Y22457702D01*
X5613246Y22457702D01*
X5778775Y22705434D01*
X5924639Y23057581D01*
X5962632Y23248587D01*
X7934192Y23248587D01*
X8029956Y22984186D01*
X8319571Y22843296D01*
X8631108Y22761616D01*
X8952595Y22742282D01*
X9271675Y22786039D01*
X9576088Y22891205D01*
X9750044Y22984186D01*
X9845808Y23248587D01*
X8890000Y24204395D01*
X7934192Y23248587D01*
X5962632Y23248587D01*
X5999000Y23431419D01*
X5999000Y23812581D01*
X5924639Y24186419D01*
X5868726Y24321405D01*
X7248282Y24321405D01*
X7292039Y24002325D01*
X7397205Y23697912D01*
X7490186Y23523956D01*
X7754587Y23428192D01*
X8710395Y24384000D01*
X9069605Y24384000D01*
X10025413Y23428192D01*
X10289814Y23523956D01*
X10430704Y23813571D01*
X10512384Y24125108D01*
X10531718Y24446595D01*
X10487961Y24765675D01*
X10382795Y25070088D01*
X10289814Y25244044D01*
X10025413Y25339808D01*
X9069605Y24384000D01*
X8710395Y24384000D01*
X7754587Y25339808D01*
X7490186Y25244044D01*
X7349296Y24954429D01*
X7267616Y24642892D01*
X7248282Y24321405D01*
X5868726Y24321405D01*
X5778775Y24538566D01*
X5567013Y24855491D01*
X5297491Y25125013D01*
X4980566Y25336775D01*
X4628419Y25482639D01*
X4443544Y25519413D01*
X7934192Y25519413D01*
X8890000Y24563605D01*
X9845808Y25519413D01*
X9750044Y25783814D01*
X9460429Y25924704D01*
X9148892Y26006384D01*
X8827405Y26025718D01*
X8508325Y25981961D01*
X8203912Y25876795D01*
X8029956Y25783814D01*
X7934192Y25519413D01*
X4443544Y25519413D01*
X4254581Y25557000D01*
X3873419Y25557000D01*
X3499581Y25482639D01*
X3147434Y25336775D01*
X2830509Y25125013D01*
X2560987Y24855491D01*
X2349225Y24538566D01*
X2203361Y24186419D01*
X2129000Y23812581D01*
X660000Y23812581D01*
X660000Y26657501D01*
X15622106Y26657501D01*
X15838228Y26290742D01*
X16298105Y26050062D01*
X16796098Y25903725D01*
X17313071Y25857352D01*
X17829159Y25912727D01*
X18324526Y26067721D01*
X18741772Y26290742D01*
X18957894Y26657501D01*
X17290000Y28325395D01*
X15622106Y26657501D01*
X660000Y26657501D01*
X660000Y28481929D01*
X14642352Y28481929D01*
X14697727Y27965841D01*
X14852721Y27470474D01*
X15075742Y27053228D01*
X15442501Y26837106D01*
X17110395Y28505000D01*
X17469605Y28505000D01*
X19137499Y26837106D01*
X19504258Y27053228D01*
X19744938Y27513105D01*
X19891275Y28011098D01*
X19937648Y28528071D01*
X19882273Y29044159D01*
X19727279Y29539526D01*
X19504258Y29956772D01*
X19137499Y30172894D01*
X17469605Y28505000D01*
X17110395Y28505000D01*
X15442501Y30172894D01*
X15075742Y29956772D01*
X14835062Y29496895D01*
X14688725Y28998902D01*
X14642352Y28481929D01*
X660000Y28481929D01*
X660000Y31090000D01*
X16727596Y31090000D01*
X16255474Y30942279D01*
G04 #@! TA.AperFunction,Conductor*
D19*
G36*
X16255474Y30942279D02*
G01*
X15838228Y30719258D01*
X15622106Y30352499D01*
X17290000Y28684605D01*
X18957894Y30352499D01*
X18741772Y30719258D01*
X18281895Y30959938D01*
X17839287Y31090000D01*
X21565001Y31090000D01*
X21565000Y660000D01*
X660000Y660000D01*
X660000Y1657501D01*
X15622106Y1657501D01*
X15838228Y1290742D01*
X16298105Y1050062D01*
X16796098Y903725D01*
X17313071Y857352D01*
X17829159Y912727D01*
X18324526Y1067721D01*
X18741772Y1290742D01*
X18957894Y1657501D01*
X17290000Y3325395D01*
X15622106Y1657501D01*
X660000Y1657501D01*
X660000Y3481929D01*
X14642352Y3481929D01*
X14697727Y2965841D01*
X14852721Y2470474D01*
X15075742Y2053228D01*
X15442501Y1837106D01*
X17110395Y3505000D01*
X17469605Y3505000D01*
X19137499Y1837106D01*
X19504258Y2053228D01*
X19744938Y2513105D01*
X19891275Y3011098D01*
X19937648Y3528071D01*
X19882273Y4044159D01*
X19727279Y4539526D01*
X19504258Y4956772D01*
X19137499Y5172894D01*
X17469605Y3505000D01*
X17110395Y3505000D01*
X15442501Y5172894D01*
X15075742Y4956772D01*
X14835062Y4496895D01*
X14688725Y3998902D01*
X14642352Y3481929D01*
X660000Y3481929D01*
X660000Y5352499D01*
X15622106Y5352499D01*
X17290000Y3684605D01*
X18957894Y5352499D01*
X18741772Y5719258D01*
X18281895Y5959938D01*
X17783902Y6106275D01*
X17266929Y6152648D01*
X16750841Y6097273D01*
X16255474Y5942279D01*
X15838228Y5719258D01*
X15622106Y5352499D01*
X660000Y5352499D01*
X660000Y9080581D01*
X2129000Y9080581D01*
X2129000Y8699419D01*
X2203361Y8325581D01*
X2349225Y7973434D01*
X2560987Y7656509D01*
X2830509Y7386987D01*
X3147434Y7175225D01*
X3499581Y7029361D01*
X3873419Y6955000D01*
X4254581Y6955000D01*
X4628419Y7029361D01*
X4846243Y7119587D01*
X7934192Y7119587D01*
X8029956Y6855186D01*
X8319571Y6714296D01*
X8631108Y6632616D01*
X8952595Y6613282D01*
X9271675Y6657039D01*
X9576088Y6762205D01*
X9750044Y6855186D01*
X9845808Y7119587D01*
X8890000Y8075395D01*
X7934192Y7119587D01*
X4846243Y7119587D01*
X4980566Y7175225D01*
X5297491Y7386987D01*
X5567013Y7656509D01*
X5778775Y7973434D01*
X5869475Y8192405D01*
X7248282Y8192405D01*
X7292039Y7873325D01*
X7397205Y7568912D01*
X7490186Y7394956D01*
X7754587Y7299192D01*
X8710395Y8255000D01*
X9069605Y8255000D01*
X10025413Y7299192D01*
X10289814Y7394956D01*
X10430704Y7684571D01*
X10512384Y7996108D01*
X10531718Y8317595D01*
X10487961Y8636675D01*
X10382795Y8941088D01*
X10329767Y9040298D01*
X16426903Y9040298D01*
X16498486Y8796329D01*
X16753996Y8675429D01*
X17028184Y8606700D01*
X17310512Y8592783D01*
X17590130Y8634213D01*
X17856292Y8729397D01*
X17981514Y8796329D01*
X18053097Y9040298D01*
X17240000Y9853395D01*
X16426903Y9040298D01*
X10329767Y9040298D01*
X10289814Y9115044D01*
X10025413Y9210808D01*
X9069605Y8255000D01*
X8710395Y8255000D01*
X7754587Y9210808D01*
X7490186Y9115044D01*
X7349296Y8825429D01*
X7267616Y8513892D01*
X7248282Y8192405D01*
X5869475Y8192405D01*
X5924639Y8325581D01*
X5999000Y8699419D01*
X5999000Y9080581D01*
X5937371Y9390413D01*
X7934192Y9390413D01*
X8890000Y8434605D01*
X9845808Y9390413D01*
X9750044Y9654814D01*
X9460429Y9795704D01*
X9148892Y9877384D01*
X8827405Y9896718D01*
X8508325Y9852961D01*
X8203912Y9747795D01*
X8029956Y9654814D01*
X7934192Y9390413D01*
X5937371Y9390413D01*
X5924639Y9454419D01*
X5778775Y9806566D01*
X5567013Y10123491D01*
X5297491Y10393013D01*
X4980566Y10604775D01*
X4628419Y10750639D01*
X4254581Y10825000D01*
X3873419Y10825000D01*
X3499581Y10750639D01*
X3147434Y10604775D01*
X2830509Y10393013D01*
X2560987Y10123491D01*
X2349225Y9806566D01*
X2203361Y9454419D01*
X2129000Y9080581D01*
X660000Y9080581D01*
X660000Y11089488D01*
X13799783Y11089488D01*
X13841213Y10809870D01*
X13936397Y10543708D01*
X14003329Y10418486D01*
X14247298Y10346903D01*
X15060395Y11160000D01*
X14247298Y11973097D01*
X14003329Y11901514D01*
X13882429Y11646004D01*
X13813700Y11371816D01*
X13799783Y11089488D01*
X660000Y11089488D01*
X660000Y11950000D01*
X7501928Y11950000D01*
X7514188Y11825518D01*
X7550498Y11705820D01*
X7609463Y11595506D01*
X7688815Y11498815D01*
X7785506Y11419463D01*
X7895820Y11360498D01*
X8015518Y11324188D01*
X8140000Y11311928D01*
X8604250Y11315000D01*
X8763000Y11473750D01*
X8763000Y12573000D01*
X9017000Y12573000D01*
X9017000Y11473750D01*
X9175750Y11315000D01*
X9640000Y11311928D01*
X9764482Y11324188D01*
X9884180Y11360498D01*
X9994494Y11419463D01*
X10091185Y11498815D01*
X10170537Y11595506D01*
X10229502Y11705820D01*
X10265812Y11825518D01*
X10278072Y11950000D01*
X10275000Y12414250D01*
X10116250Y12573000D01*
X9017000Y12573000D01*
X8763000Y12573000D01*
X7663750Y12573000D01*
X7505000Y12414250D01*
X7501928Y11950000D01*
X660000Y11950000D01*
X660000Y19948411D01*
X4965000Y19948411D01*
X4965000Y19675589D01*
X5018225Y19408011D01*
X5122629Y19155957D01*
X5274201Y18929114D01*
X5407315Y18796000D01*
X5274201Y18662886D01*
X5122629Y18436043D01*
X5018225Y18183989D01*
X4965000Y17916411D01*
X4965000Y17643589D01*
X5018225Y17376011D01*
X5122629Y17123957D01*
X5274201Y16897114D01*
X5407315Y16764000D01*
X5274201Y16630886D01*
X5122629Y16404043D01*
X5018225Y16151989D01*
X4965000Y15884411D01*
X4965000Y15611589D01*
X5018225Y15344011D01*
X5122629Y15091957D01*
X5274201Y14865114D01*
X5407315Y14732000D01*
X5274201Y14598886D01*
X5122629Y14372043D01*
X5018225Y14119989D01*
X4965000Y13852411D01*
X4965000Y13579589D01*
X5018225Y13312011D01*
X5122629Y13059957D01*
X5274201Y12833114D01*
X5467114Y12640201D01*
X5693957Y12488629D01*
X5946011Y12384225D01*
X6213589Y12331000D01*
X6486411Y12331000D01*
X6753989Y12384225D01*
X7006043Y12488629D01*
X7232886Y12640201D01*
X7425799Y12833114D01*
X7518660Y12972090D01*
X7663750Y12827000D01*
X8763000Y12827000D01*
X8763000Y12847000D01*
X9017000Y12847000D01*
X9017000Y12827000D01*
X10116250Y12827000D01*
X10275000Y12985750D01*
X10277605Y13379488D01*
X13799783Y13379488D01*
X13841213Y13099870D01*
X13936397Y12833708D01*
X14003329Y12708486D01*
X14247298Y12636903D01*
X15060395Y13450000D01*
X14247298Y14263097D01*
X14003329Y14191514D01*
X13882429Y13936004D01*
X13813700Y13661816D01*
X13799783Y13379488D01*
X10277605Y13379488D01*
X10278072Y13450000D01*
X10265812Y13574482D01*
X10229502Y13694180D01*
X10170537Y13804494D01*
X10091185Y13901185D01*
X9994494Y13980537D01*
X9976521Y13990144D01*
X10085860Y14020137D01*
X10201760Y14267116D01*
X10267250Y14531960D01*
X10279812Y14804492D01*
X10238965Y15074238D01*
X10146277Y15330832D01*
X10085860Y15443863D01*
X9846993Y15509388D01*
X9069605Y14732000D01*
X9083748Y14717857D01*
X8904143Y14538252D01*
X8890000Y14552395D01*
X8875858Y14538252D01*
X8696253Y14717857D01*
X8710395Y14732000D01*
X7933007Y15509388D01*
X7702070Y15446038D01*
X7735000Y15611589D01*
X7735000Y15807007D01*
X8112612Y15807007D01*
X8128799Y15748000D01*
X8112612Y15688993D01*
X8157222Y15644383D01*
X8178137Y15568140D01*
X8282386Y15519219D01*
X8890000Y14911605D01*
X9484583Y15506188D01*
X9488832Y15507723D01*
X9601863Y15568140D01*
X9622778Y15644383D01*
X9667388Y15688993D01*
X9651201Y15748000D01*
X9667388Y15807007D01*
X9622778Y15851617D01*
X9601863Y15927860D01*
X9497614Y15976781D01*
X8890000Y16584395D01*
X8295417Y15989812D01*
X8291168Y15988277D01*
X8178137Y15927860D01*
X8157222Y15851617D01*
X8112612Y15807007D01*
X7735000Y15807007D01*
X7735000Y15884411D01*
X7702070Y16049962D01*
X7933007Y15986612D01*
X8710395Y16764000D01*
X9069605Y16764000D01*
X9846993Y15986612D01*
X10085860Y16052137D01*
X10201760Y16299116D01*
X10267250Y16563960D01*
X10279812Y16836492D01*
X10238965Y17106238D01*
X10146277Y17362832D01*
X10085860Y17475863D01*
X9846993Y17541388D01*
X9069605Y16764000D01*
X8710395Y16764000D01*
X7933007Y17541388D01*
X7702070Y17478038D01*
X7735000Y17643589D01*
X7735000Y17916411D01*
X7702362Y18080493D01*
X7814201Y17913114D01*
X8007114Y17720201D01*
X8233957Y17568629D01*
X8286910Y17546695D01*
X8890000Y16943605D01*
X9493090Y17546695D01*
X9546043Y17568629D01*
X9772886Y17720201D01*
X9965799Y17913114D01*
X10117371Y18139957D01*
X10221775Y18392011D01*
X10275000Y18659589D01*
X10275000Y18932411D01*
X10221775Y19199989D01*
X10117371Y19452043D01*
X9965799Y19678886D01*
X9772886Y19871799D01*
X9546043Y20023371D01*
X9293989Y20127775D01*
X9026411Y20181000D01*
X8753589Y20181000D01*
X8486011Y20127775D01*
X8233957Y20023371D01*
X8007114Y19871799D01*
X7814201Y19678886D01*
X7702362Y19511507D01*
X7735000Y19675589D01*
X7735000Y19948411D01*
X7681775Y20215989D01*
X7577371Y20468043D01*
X7425799Y20694886D01*
X7232886Y20887799D01*
X7006043Y21039371D01*
X6811388Y21120000D01*
X13801928Y21120000D01*
X13801928Y19520000D01*
X13814188Y19395518D01*
X13850498Y19275820D01*
X13909463Y19165506D01*
X13988815Y19068815D01*
X14085506Y18989463D01*
X14140612Y18960008D01*
X14125363Y18944759D01*
X13968320Y18709727D01*
X13860147Y18448574D01*
X13805000Y18171335D01*
X13805000Y17888665D01*
X13860147Y17611426D01*
X13968320Y17350273D01*
X14125363Y17115241D01*
X14325241Y16915363D01*
X14370683Y16885000D01*
X14325241Y16854637D01*
X14125363Y16654759D01*
X13968320Y16419727D01*
X13860147Y16158574D01*
X13805000Y15881335D01*
X13805000Y15598665D01*
X13860147Y15321426D01*
X13968320Y15060273D01*
X14125363Y14825241D01*
X14325241Y14625363D01*
X14455049Y14538628D01*
X14426903Y14442702D01*
X15240000Y13629605D01*
X15254143Y13643747D01*
X15433748Y13464142D01*
X15419605Y13450000D01*
X15433748Y13435857D01*
X15254143Y13256252D01*
X15240000Y13270395D01*
X14426903Y12457298D01*
X14471589Y12305000D01*
X14426903Y12152702D01*
X15240000Y11339605D01*
X15254143Y11353747D01*
X15433748Y11174142D01*
X15419605Y11160000D01*
X15433748Y11145857D01*
X15254143Y10966252D01*
X15240000Y10980395D01*
X14426903Y10167298D01*
X14498486Y9923329D01*
X14753996Y9802429D01*
X15028184Y9733700D01*
X15310512Y9719783D01*
X15590130Y9761213D01*
X15817555Y9842544D01*
X15841213Y9682870D01*
X15936397Y9416708D01*
X16003329Y9291486D01*
X16247298Y9219903D01*
X17060395Y10033000D01*
X17046253Y10047142D01*
X17225858Y10226747D01*
X17240000Y10212605D01*
X17254143Y10226747D01*
X17433748Y10047142D01*
X17419605Y10033000D01*
X18232702Y9219903D01*
X18476671Y9291486D01*
X18597571Y9546996D01*
X18666300Y9821184D01*
X18666621Y9827701D01*
X18781426Y9780147D01*
X19058665Y9725000D01*
X19341335Y9725000D01*
X19618574Y9780147D01*
X19879727Y9888320D01*
X20114759Y10045363D01*
X20314637Y10245241D01*
X20471680Y10480273D01*
X20579853Y10741426D01*
X20635000Y11018665D01*
X20635000Y11301335D01*
X20579853Y11578574D01*
X20471680Y11839727D01*
X20314637Y12074759D01*
X20114759Y12274637D01*
X20069317Y12305000D01*
X20114759Y12335363D01*
X20314637Y12535241D01*
X20471680Y12770273D01*
X20579853Y13031426D01*
X20635000Y13308665D01*
X20635000Y13591335D01*
X20579853Y13868574D01*
X20471680Y14129727D01*
X20314637Y14364759D01*
X20114759Y14564637D01*
X20069317Y14595000D01*
X20114759Y14625363D01*
X20314637Y14825241D01*
X20471680Y15060273D01*
X20579853Y15321426D01*
X20635000Y15598665D01*
X20635000Y15881335D01*
X20579853Y16158574D01*
X20471680Y16419727D01*
X20314637Y16654759D01*
X20114759Y16854637D01*
X20069317Y16885000D01*
X20114759Y16915363D01*
X20314637Y17115241D01*
X20471680Y17350273D01*
X20579853Y17611426D01*
X20635000Y17888665D01*
X20635000Y18171335D01*
X20579853Y18448574D01*
X20471680Y18709727D01*
X20314637Y18944759D01*
X20114759Y19144637D01*
X19984951Y19231372D01*
X20013097Y19327298D01*
X19200000Y20140395D01*
X19185858Y20126252D01*
X19006253Y20305857D01*
X19020395Y20320000D01*
X19379605Y20320000D01*
X20192702Y19506903D01*
X20436671Y19578486D01*
X20557571Y19833996D01*
X20626300Y20108184D01*
X20640217Y20390512D01*
X20598787Y20670130D01*
X20503603Y20936292D01*
X20436671Y21061514D01*
X20192702Y21133097D01*
X19379605Y20320000D01*
X19020395Y20320000D01*
X19006253Y20334142D01*
X19185858Y20513747D01*
X19200000Y20499605D01*
X20013097Y21312702D01*
X19941514Y21556671D01*
X19686004Y21677571D01*
X19411816Y21746300D01*
X19129488Y21760217D01*
X18849870Y21718787D01*
X18643972Y21645154D01*
X18618787Y21815130D01*
X18523603Y22081292D01*
X18456671Y22206514D01*
X18212702Y22278097D01*
X17399605Y21465000D01*
X17413748Y21450857D01*
X17234143Y21271252D01*
X17220000Y21285395D01*
X17205858Y21271252D01*
X17026253Y21450857D01*
X17040395Y21465000D01*
X16227298Y22278097D01*
X15983329Y22206514D01*
X15862429Y21951004D01*
X15814068Y21758072D01*
X14440000Y21758072D01*
X14315518Y21745812D01*
X14195820Y21709502D01*
X14085506Y21650537D01*
X13988815Y21571185D01*
X13909463Y21474494D01*
X13850498Y21364180D01*
X13814188Y21244482D01*
X13801928Y21120000D01*
X6811388Y21120000D01*
X6753989Y21143775D01*
X6486411Y21197000D01*
X6213589Y21197000D01*
X5946011Y21143775D01*
X5693957Y21039371D01*
X5467114Y20887799D01*
X5274201Y20694886D01*
X5122629Y20468043D01*
X5018225Y20215989D01*
X4965000Y19948411D01*
X660000Y19948411D01*
X660000Y23812581D01*
X2129000Y23812581D01*
X2129000Y23431419D01*
X2203361Y23057581D01*
X2349225Y22705434D01*
X2560987Y22388509D01*
X2830509Y22118987D01*
X3147434Y21907225D01*
X3499581Y21761361D01*
X3873419Y21687000D01*
X4254581Y21687000D01*
X4628419Y21761361D01*
X4980566Y21907225D01*
X5297491Y22118987D01*
X5567013Y22388509D01*
X5613246Y22457702D01*
X16406903Y22457702D01*
X17220000Y21644605D01*
X18033097Y22457702D01*
X17961514Y22701671D01*
X17706004Y22822571D01*
X17431816Y22891300D01*
X17149488Y22905217D01*
X16869870Y22863787D01*
X16603708Y22768603D01*
X16478486Y22701671D01*
X16406903Y22457702D01*
X5613246Y22457702D01*
X5778775Y22705434D01*
X5924639Y23057581D01*
X5962632Y23248587D01*
X7934192Y23248587D01*
X8029956Y22984186D01*
X8319571Y22843296D01*
X8631108Y22761616D01*
X8952595Y22742282D01*
X9271675Y22786039D01*
X9576088Y22891205D01*
X9750044Y22984186D01*
X9845808Y23248587D01*
X8890000Y24204395D01*
X7934192Y23248587D01*
X5962632Y23248587D01*
X5999000Y23431419D01*
X5999000Y23812581D01*
X5924639Y24186419D01*
X5868726Y24321405D01*
X7248282Y24321405D01*
X7292039Y24002325D01*
X7397205Y23697912D01*
X7490186Y23523956D01*
X7754587Y23428192D01*
X8710395Y24384000D01*
X9069605Y24384000D01*
X10025413Y23428192D01*
X10289814Y23523956D01*
X10430704Y23813571D01*
X10512384Y24125108D01*
X10531718Y24446595D01*
X10487961Y24765675D01*
X10382795Y25070088D01*
X10289814Y25244044D01*
X10025413Y25339808D01*
X9069605Y24384000D01*
X8710395Y24384000D01*
X7754587Y25339808D01*
X7490186Y25244044D01*
X7349296Y24954429D01*
X7267616Y24642892D01*
X7248282Y24321405D01*
X5868726Y24321405D01*
X5778775Y24538566D01*
X5567013Y24855491D01*
X5297491Y25125013D01*
X4980566Y25336775D01*
X4628419Y25482639D01*
X4443544Y25519413D01*
X7934192Y25519413D01*
X8890000Y24563605D01*
X9845808Y25519413D01*
X9750044Y25783814D01*
X9460429Y25924704D01*
X9148892Y26006384D01*
X8827405Y26025718D01*
X8508325Y25981961D01*
X8203912Y25876795D01*
X8029956Y25783814D01*
X7934192Y25519413D01*
X4443544Y25519413D01*
X4254581Y25557000D01*
X3873419Y25557000D01*
X3499581Y25482639D01*
X3147434Y25336775D01*
X2830509Y25125013D01*
X2560987Y24855491D01*
X2349225Y24538566D01*
X2203361Y24186419D01*
X2129000Y23812581D01*
X660000Y23812581D01*
X660000Y26657501D01*
X15622106Y26657501D01*
X15838228Y26290742D01*
X16298105Y26050062D01*
X16796098Y25903725D01*
X17313071Y25857352D01*
X17829159Y25912727D01*
X18324526Y26067721D01*
X18741772Y26290742D01*
X18957894Y26657501D01*
X17290000Y28325395D01*
X15622106Y26657501D01*
X660000Y26657501D01*
X660000Y28481929D01*
X14642352Y28481929D01*
X14697727Y27965841D01*
X14852721Y27470474D01*
X15075742Y27053228D01*
X15442501Y26837106D01*
X17110395Y28505000D01*
X17469605Y28505000D01*
X19137499Y26837106D01*
X19504258Y27053228D01*
X19744938Y27513105D01*
X19891275Y28011098D01*
X19937648Y28528071D01*
X19882273Y29044159D01*
X19727279Y29539526D01*
X19504258Y29956772D01*
X19137499Y30172894D01*
X17469605Y28505000D01*
X17110395Y28505000D01*
X15442501Y30172894D01*
X15075742Y29956772D01*
X14835062Y29496895D01*
X14688725Y28998902D01*
X14642352Y28481929D01*
X660000Y28481929D01*
X660000Y31090000D01*
X16727596Y31090000D01*
X16255474Y30942279D01*
G37*
G04 #@! TD.AperFunction*
D18*
X17413748Y12319142D02*
X17399605Y12305000D01*
X17413748Y12290857D01*
X17234143Y12111252D01*
X17220000Y12125395D01*
X17205858Y12111252D01*
X17026253Y12290857D01*
X17040395Y12305000D01*
X17026253Y12319142D01*
X17205858Y12498747D01*
X17220000Y12484605D01*
X17234143Y12498747D01*
X17413748Y12319142D01*
G04 #@! TA.AperFunction,Conductor*
D19*
G36*
X17413748Y12319142D02*
G01*
X17399605Y12305000D01*
X17413748Y12290857D01*
X17234143Y12111252D01*
X17220000Y12125395D01*
X17205858Y12111252D01*
X17026253Y12290857D01*
X17040395Y12305000D01*
X17026253Y12319142D01*
X17205858Y12498747D01*
X17220000Y12484605D01*
X17234143Y12498747D01*
X17413748Y12319142D01*
G37*
G04 #@! TD.AperFunction*
D18*
X17413748Y14609142D02*
X17399605Y14595000D01*
X17413748Y14580857D01*
X17234143Y14401252D01*
X17220000Y14415395D01*
X17205858Y14401252D01*
X17026253Y14580857D01*
X17040395Y14595000D01*
X17026253Y14609142D01*
X17205858Y14788747D01*
X17220000Y14774605D01*
X17234143Y14788747D01*
X17413748Y14609142D01*
G04 #@! TA.AperFunction,Conductor*
D19*
G36*
X17413748Y14609142D02*
G01*
X17399605Y14595000D01*
X17413748Y14580857D01*
X17234143Y14401252D01*
X17220000Y14415395D01*
X17205858Y14401252D01*
X17026253Y14580857D01*
X17040395Y14595000D01*
X17026253Y14609142D01*
X17205858Y14788747D01*
X17220000Y14774605D01*
X17234143Y14788747D01*
X17413748Y14609142D01*
G37*
G04 #@! TD.AperFunction*
D18*
X17413748Y16899142D02*
X17399605Y16885000D01*
X17413748Y16870857D01*
X17234143Y16691252D01*
X17220000Y16705395D01*
X17205858Y16691252D01*
X17026253Y16870857D01*
X17040395Y16885000D01*
X17026253Y16899142D01*
X17205858Y17078747D01*
X17220000Y17064605D01*
X17234143Y17078747D01*
X17413748Y16899142D01*
G04 #@! TA.AperFunction,Conductor*
D19*
G36*
X17413748Y16899142D02*
G01*
X17399605Y16885000D01*
X17413748Y16870857D01*
X17234143Y16691252D01*
X17220000Y16705395D01*
X17205858Y16691252D01*
X17026253Y16870857D01*
X17040395Y16885000D01*
X17026253Y16899142D01*
X17205858Y17078747D01*
X17220000Y17064605D01*
X17234143Y17078747D01*
X17413748Y16899142D01*
G37*
G04 #@! TD.AperFunction*
D18*
X17413748Y19189142D02*
X17399605Y19175000D01*
X17413748Y19160857D01*
X17234143Y18981252D01*
X17220000Y18995395D01*
X17205858Y18981252D01*
X17026253Y19160857D01*
X17040395Y19175000D01*
X17026253Y19189142D01*
X17205858Y19368747D01*
X17220000Y19354605D01*
X17234143Y19368747D01*
X17413748Y19189142D01*
G04 #@! TA.AperFunction,Conductor*
D19*
G36*
X17413748Y19189142D02*
G01*
X17399605Y19175000D01*
X17413748Y19160857D01*
X17234143Y18981252D01*
X17220000Y18995395D01*
X17205858Y18981252D01*
X17026253Y19160857D01*
X17040395Y19175000D01*
X17026253Y19189142D01*
X17205858Y19368747D01*
X17220000Y19354605D01*
X17234143Y19368747D01*
X17413748Y19189142D01*
G37*
G04 #@! TD.AperFunction*
M02*
